<svg width="315" height="315" viewBox="0 0 315 315" fill="none" xmlns="http://www.w3.org/2000/svg">
<path d="M262.106 131.25H52.1063V236.25C52.1063 275.625 65.2313 288.75 104.606 288.75H209.606C248.981 288.75 262.106 275.625 262.106 236.25V131.25Z" stroke="white" style="stroke:white;stroke-opacity:1;" stroke-width="8" stroke-miterlimit="10" stroke-linecap="round" stroke-linejoin="round"/>
<path d="M282.188 91.875V105C282.188 119.438 275.231 131.25 255.938 131.25H59.0625C38.9813 131.25 32.8125 119.438 32.8125 105V91.875C32.8125 77.4375 38.9813 65.625 59.0625 65.625H255.938C275.231 65.625 282.188 77.4375 282.188 91.875Z" stroke="white" style="stroke:white;stroke-opacity:1;" stroke-width="8" stroke-miterlimit="10" stroke-linecap="round" stroke-linejoin="round"/>
<path d="M152.775 65.6249H80.325C75.8625 60.7687 75.9937 53.2874 80.7187 48.5624L99.3562 29.9249C104.212 25.0687 112.219 25.0687 117.075 29.9249L152.775 65.6249Z" stroke="white" style="stroke:white;stroke-opacity:1;" stroke-width="8" stroke-miterlimit="10" stroke-linecap="round" stroke-linejoin="round"/>
<path d="M234.544 65.6249H162.094L197.794 29.9249C202.65 25.0687 210.656 25.0687 215.512 29.9249L234.15 48.5624C238.875 53.2874 239.006 60.7687 234.544 65.6249Z" stroke="white" style="stroke:white;stroke-opacity:1;" stroke-width="8" stroke-miterlimit="10" stroke-linecap="round" stroke-linejoin="round"/>
<path d="M117.338 131.25V198.712C117.338 209.212 128.888 215.381 137.681 209.737L150.019 201.6C154.481 198.712 160.125 198.712 164.456 201.6L176.138 209.475C184.8 215.25 196.481 209.081 196.481 198.581V131.25H117.338Z" stroke="white" style="stroke:white;stroke-opacity:1;" stroke-width="8" stroke-miterlimit="10" stroke-linecap="round" stroke-linejoin="round"/>
</svg>
