<svg width="70" height="70" viewBox="0 0 70 70" fill="none" xmlns="http://www.w3.org/2000/svg">
<path d="M36.0791 6.27095L62.3291 16.7709C63.35 17.1792 64.1667 18.4042 64.1667 19.4834V29.1667C64.1667 30.7709 62.8542 32.0834 61.25 32.0834H8.74999C7.14583 32.0834 5.83333 30.7709 5.83333 29.1667V19.4834C5.83333 18.4042 6.65001 17.1792 7.67084 16.7709L33.9208 6.27095C34.5042 6.03761 35.4958 6.03761 36.0791 6.27095Z" stroke="#3A499C" style="stroke:#3A499C;stroke:color(display-p3 0.2275 0.2863 0.6118);stroke-opacity:1;" stroke-width="4" stroke-miterlimit="10" stroke-linecap="round" stroke-linejoin="round"/>
<path d="M64.1667 64.1667H5.83333V55.4167C5.83333 53.8125 7.14583 52.5 8.74999 52.5H61.25C62.8542 52.5 64.1667 53.8125 64.1667 55.4167V64.1667Z" stroke="#3A499C" style="stroke:#3A499C;stroke:color(display-p3 0.2275 0.2863 0.6118);stroke-opacity:1;" stroke-width="4" stroke-miterlimit="10" stroke-linecap="round" stroke-linejoin="round"/>
<path d="M11.6667 52.4999V32.0833" stroke="#3A499C" style="stroke:#3A499C;stroke:color(display-p3 0.2275 0.2863 0.6118);stroke-opacity:1;" stroke-width="4" stroke-miterlimit="10" stroke-linecap="round" stroke-linejoin="round"/>
<path d="M23.3333 52.4999V32.0833" stroke="#3A499C" style="stroke:#3A499C;stroke:color(display-p3 0.2275 0.2863 0.6118);stroke-opacity:1;" stroke-width="4" stroke-miterlimit="10" stroke-linecap="round" stroke-linejoin="round"/>
<path d="M35 52.4999V32.0833" stroke="#3A499C" style="stroke:#3A499C;stroke:color(display-p3 0.2275 0.2863 0.6118);stroke-opacity:1;" stroke-width="4" stroke-miterlimit="10" stroke-linecap="round" stroke-linejoin="round"/>
<path d="M46.6667 52.4999V32.0833" stroke="#3A499C" style="stroke:#3A499C;stroke:color(display-p3 0.2275 0.2863 0.6118);stroke-opacity:1;" stroke-width="4" stroke-miterlimit="10" stroke-linecap="round" stroke-linejoin="round"/>
<path d="M58.3333 52.4999V32.0833" stroke="#3A499C" style="stroke:#3A499C;stroke:color(display-p3 0.2275 0.2863 0.6118);stroke-opacity:1;" stroke-width="4" stroke-miterlimit="10" stroke-linecap="round" stroke-linejoin="round"/>
<path d="M2.91667 64.1667H67.0833" stroke="#3A499C" style="stroke:#3A499C;stroke:color(display-p3 0.2275 0.2863 0.6118);stroke-opacity:1;" stroke-width="4" stroke-miterlimit="10" stroke-linecap="round" stroke-linejoin="round"/>
<path d="M35 24.7917C37.4162 24.7917 39.375 22.833 39.375 20.4167C39.375 18.0005 37.4162 16.0417 35 16.0417C32.5838 16.0417 30.625 18.0005 30.625 20.4167C30.625 22.833 32.5838 24.7917 35 24.7917Z" stroke="#3A499C" style="stroke:#3A499C;stroke:color(display-p3 0.2275 0.2863 0.6118);stroke-opacity:1;" stroke-width="4" stroke-miterlimit="10" stroke-linecap="round" stroke-linejoin="round"/>
</svg>
