<svg width="70" height="70" viewBox="0 0 70 70" fill="none" xmlns="http://www.w3.org/2000/svg">
<path d="M35 34.9999C43.0542 34.9999 49.5834 28.4707 49.5834 20.4166C49.5834 12.3624 43.0542 5.83325 35 5.83325C26.9459 5.83325 20.4167 12.3624 20.4167 20.4166C20.4167 28.4707 26.9459 34.9999 35 34.9999Z" stroke="#3A499C" style="stroke:#3A499C;stroke:color(display-p3 0.2275 0.2863 0.6118);stroke-opacity:1;" stroke-width="4" stroke-linecap="round" stroke-linejoin="round"/>
<path d="M9.94586 64.1667C9.94586 52.8792 21.175 43.75 35 43.75C37.8 43.75 40.5125 44.1292 43.05 44.8292" stroke="#3A499C" style="stroke:#3A499C;stroke:color(display-p3 0.2275 0.2863 0.6118);stroke-opacity:1;" stroke-width="4" stroke-linecap="round" stroke-linejoin="round"/>
<path d="M64.1666 52.4999C64.1666 54.6874 63.5542 56.7582 62.475 58.5082C61.8625 59.5582 61.075 60.4916 60.1708 61.2499C58.1292 63.0874 55.4458 64.1666 52.5 64.1666C48.2416 64.1666 44.5374 61.8916 42.5249 58.5082C41.4458 56.7582 40.8333 54.6874 40.8333 52.4999C40.8333 48.8249 42.525 45.5291 45.2083 43.3999C47.2208 41.7958 49.7583 40.8333 52.5 40.8333C58.9458 40.8333 64.1666 46.0541 64.1666 52.4999Z" stroke="#3A499C" style="stroke:#3A499C;stroke:color(display-p3 0.2275 0.2863 0.6118);stroke-opacity:1;" stroke-width="4" stroke-miterlimit="10" stroke-linecap="round" stroke-linejoin="round"/>
<path d="M47.95 52.4999L50.8375 55.3873L57.05 49.6416" stroke="#3A499C" style="stroke:#3A499C;stroke:color(display-p3 0.2275 0.2863 0.6118);stroke-opacity:1;" stroke-width="4" stroke-linecap="round" stroke-linejoin="round"/>
</svg>
