<svg width="70" height="70" viewBox="0 0 70 70" fill="none" xmlns="http://www.w3.org/2000/svg">
<path d="M56.2916 23.0998V38.1207C56.2916 47.1041 51.1583 50.954 43.4583 50.954H17.8207C16.5082 50.954 15.2541 50.8375 14.0874 50.575C13.3582 50.4583 12.6583 50.2541 12.0166 50.0208C7.6416 48.3875 4.98743 44.5957 4.98743 38.1207V23.0998C4.98743 14.1165 10.1207 10.2666 17.8207 10.2666H43.4583C49.9916 10.2666 54.6874 13.0374 55.9416 19.3666C56.1458 20.5333 56.2916 21.729 56.2916 23.0998Z" stroke="#3A499C" style="stroke:#3A499C;stroke:color(display-p3 0.2275 0.2863 0.6118);stroke-opacity:1;" stroke-width="4" stroke-miterlimit="10" stroke-linecap="round" stroke-linejoin="round"/>
<path d="M65.0447 31.8502V46.8711C65.0447 55.8544 59.9114 59.7043 52.2114 59.7043H26.5739C24.4156 59.7043 22.4614 59.4128 20.7698 58.7711C17.2989 57.4878 14.9364 54.8336 14.0906 50.5753C15.2572 50.8378 16.5114 50.9543 17.8239 50.9543H43.4614C51.1614 50.9543 56.2947 47.1044 56.2947 38.1211V23.1002C56.2947 21.7294 56.1781 20.5044 55.9448 19.3669C61.4864 20.5336 65.0447 24.4419 65.0447 31.8502Z" stroke="#3A499C" style="stroke:#3A499C;stroke:color(display-p3 0.2275 0.2863 0.6118);stroke-opacity:1;" stroke-width="4" stroke-miterlimit="10" stroke-linecap="round" stroke-linejoin="round"/>
<path d="M30.6205 38.3246C34.873 38.3246 38.3205 34.8772 38.3205 30.6246C38.3205 26.372 34.873 22.9246 30.6205 22.9246C26.3679 22.9246 22.9204 26.372 22.9204 30.6246C22.9204 34.8772 26.3679 38.3246 30.6205 38.3246Z" stroke="#3A499C" style="stroke:#3A499C;stroke:color(display-p3 0.2275 0.2863 0.6118);stroke-opacity:1;" stroke-width="4" stroke-miterlimit="10" stroke-linecap="round" stroke-linejoin="round"/>
<path d="M13.9417 24.2083V37.0417" stroke="#3A499C" style="stroke:#3A499C;stroke:color(display-p3 0.2275 0.2863 0.6118);stroke-opacity:1;" stroke-width="4" stroke-miterlimit="10" stroke-linecap="round" stroke-linejoin="round"/>
<path d="M47.3132 24.209V37.0424" stroke="#3A499C" style="stroke:#3A499C;stroke:color(display-p3 0.2275 0.2863 0.6118);stroke-opacity:1;" stroke-width="4" stroke-miterlimit="10" stroke-linecap="round" stroke-linejoin="round"/>
</svg>
