<svg width="70" height="70" viewBox="0 0 70 70" fill="none" xmlns="http://www.w3.org/2000/svg">
<path d="M26.7167 31.7041C26.425 31.6749 26.075 31.6749 25.7542 31.7041C18.8125 31.4708 13.3 25.7833 13.3 18.7833C13.3 11.6374 19.075 5.83325 26.25 5.83325C33.3958 5.83325 39.2 11.6374 39.2 18.7833C39.1708 25.7833 33.6583 31.4708 26.7167 31.7041Z" stroke="#3A499C" style="stroke:#3A499C;stroke:color(display-p3 0.2275 0.2863 0.6118);stroke-opacity:1;" stroke-width="4" stroke-linecap="round" stroke-linejoin="round"/>
<path d="M47.8625 11.6667C53.5208 11.6667 58.0708 16.2459 58.0708 21.8751C58.0708 27.3876 53.6958 31.8792 48.2417 32.0834C48.0083 32.0542 47.7458 32.0542 47.4833 32.0834" stroke="#3A499C" style="stroke:#3A499C;stroke:color(display-p3 0.2275 0.2863 0.6118);stroke-opacity:1;" stroke-width="4" stroke-linecap="round" stroke-linejoin="round"/>
<path d="M12.1333 42.4667C5.07502 47.1917 5.07502 54.8917 12.1333 59.5876C20.1542 64.9542 33.3084 64.9542 41.3292 59.5876C48.3875 54.8626 48.3875 47.1626 41.3292 42.4667C33.3375 37.1292 20.1833 37.1292 12.1333 42.4667Z" stroke="#3A499C" style="stroke:#3A499C;stroke:color(display-p3 0.2275 0.2863 0.6118);stroke-opacity:1;" stroke-width="4" stroke-linecap="round" stroke-linejoin="round"/>
<path d="M53.4917 58.3333C55.5917 57.8958 57.575 57.0499 59.2084 55.7957C63.7584 52.3832 63.7584 46.7541 59.2084 43.3416C57.6042 42.1166 55.65 41.2999 53.5792 40.8333" stroke="#3A499C" style="stroke:#3A499C;stroke:color(display-p3 0.2275 0.2863 0.6118);stroke-opacity:1;" stroke-width="4" stroke-linecap="round" stroke-linejoin="round"/>
</svg>
