<svg width="70" height="70" viewBox="0 0 70 70" fill="none" xmlns="http://www.w3.org/2000/svg">
<path d="M26.25 64.1666H43.75C58.3333 64.1666 64.1666 58.3332 64.1666 43.7499V26.2499C64.1666 11.6666 58.3333 5.83325 43.75 5.83325H26.25C11.6666 5.83325 5.83331 11.6666 5.83331 26.2499V43.7499C5.83331 58.3332 11.6666 64.1666 26.25 64.1666Z" stroke="#3A499C" style="stroke:#3A499C;stroke:color(display-p3 0.2275 0.2863 0.6118);stroke-opacity:1;" stroke-width="4" stroke-linecap="round" stroke-linejoin="round"/>
<path d="M45.2083 28.4375C47.6246 28.4375 49.5833 26.4787 49.5833 24.0625C49.5833 21.6463 47.6246 19.6875 45.2083 19.6875C42.7921 19.6875 40.8333 21.6463 40.8333 24.0625C40.8333 26.4787 42.7921 28.4375 45.2083 28.4375Z" stroke="#3A499C" style="stroke:#3A499C;stroke:color(display-p3 0.2275 0.2863 0.6118);stroke-opacity:1;" stroke-width="4" stroke-miterlimit="10" stroke-linecap="round" stroke-linejoin="round"/>
<path d="M24.7917 28.4375C27.2079 28.4375 29.1667 26.4787 29.1667 24.0625C29.1667 21.6463 27.2079 19.6875 24.7917 19.6875C22.3754 19.6875 20.4167 21.6463 20.4167 24.0625C20.4167 26.4787 22.3754 28.4375 24.7917 28.4375Z" stroke="#3A499C" style="stroke:#3A499C;stroke:color(display-p3 0.2275 0.2863 0.6118);stroke-opacity:1;" stroke-width="4" stroke-miterlimit="10" stroke-linecap="round" stroke-linejoin="round"/>
<path d="M24.5 38.7917H45.5C46.9583 38.7917 48.125 39.9584 48.125 41.4167C48.125 48.6792 42.2625 54.5418 35 54.5418C27.7375 54.5418 21.875 48.6792 21.875 41.4167C21.875 39.9584 23.0417 38.7917 24.5 38.7917Z" stroke="#3A499C" style="stroke:#3A499C;stroke:color(display-p3 0.2275 0.2863 0.6118);stroke-opacity:1;" stroke-width="4" stroke-miterlimit="10" stroke-linecap="round" stroke-linejoin="round"/>
</svg>
