<svg width="70" height="70" viewBox="0 0 70 70" fill="none" xmlns="http://www.w3.org/2000/svg">
<path d="M26.25 64.1666H43.75C58.3334 64.1666 64.1667 58.3332 64.1667 43.7499V26.2499C64.1667 11.6666 58.3334 5.83325 43.75 5.83325H26.25C11.6667 5.83325 5.83337 11.6666 5.83337 26.2499V43.7499C5.83337 58.3332 11.6667 64.1666 26.25 64.1666Z" stroke="#3A499C" style="stroke:#3A499C;stroke:color(display-p3 0.2275 0.2863 0.6118);stroke-opacity:1;" stroke-width="4" stroke-linecap="round" stroke-linejoin="round"/>
<path d="M47.4833 39.6959C44.1875 42.9918 39.4625 44.0126 35.2917 42.7001L27.7375 50.2251C27.2125 50.7793 26.1333 51.1293 25.3458 51.0126L21.8458 50.5459C20.6792 50.4001 19.6292 49.2918 19.4542 48.1543L18.9875 44.6543C18.8708 43.8959 19.25 42.8168 19.775 42.2626L27.3 34.7376C26.0167 30.5668 27.0083 25.8418 30.3042 22.5459C35.0292 17.8209 42.7292 17.8209 47.4833 22.5459C52.2083 27.2418 52.2083 34.9418 47.4833 39.6959Z" stroke="#3A499C" style="stroke:#3A499C;stroke:color(display-p3 0.2275 0.2863 0.6118);stroke-opacity:1;" stroke-width="4" stroke-miterlimit="10" stroke-linecap="round" stroke-linejoin="round"/>
<path d="M30.4792 47.4834L28 44.9751" stroke="#3A499C" style="stroke:#3A499C;stroke:color(display-p3 0.2275 0.2863 0.6118);stroke-opacity:1;" stroke-width="4" stroke-miterlimit="10" stroke-linecap="round" stroke-linejoin="round"/>
<path d="M39.0674 31.2081H39.0936" stroke="#3A499C" style="stroke:#3A499C;stroke:color(display-p3 0.2275 0.2863 0.6118);stroke-opacity:1;" stroke-width="4" stroke-linecap="round" stroke-linejoin="round"/>
</svg>
