<svg width="301" height="89" viewBox="0 0 301 89" fill="none" xmlns="http://www.w3.org/2000/svg">
<path fill-rule="evenodd" clip-rule="evenodd" d="M84.3112 46.6671C86.1824 46.3828 102.131 46.5869 105.472 46.5869C109.056 46.5869 112.116 46.3775 114.508 48.3088C119.071 51.9943 118.869 59.6957 114.284 62.9378C111.654 64.7976 109.089 64.5024 105.472 64.5024C98.7809 64.5024 90.9505 64.8764 84.3173 64.4762L84.3112 46.6671ZM84.3112 19.2321C87.4542 18.796 93.6427 19.1588 97.1093 19.1588C100.519 19.1588 106.225 18.6072 108.961 19.9678C114.443 22.6946 114.7 34.2534 105.258 34.2577C101.958 34.2592 86.2942 34.4092 84.3112 34.1657V19.2321ZM130.438 47.2265C129.144 46.2166 128.178 41.8696 120.693 38.9682C121.448 37.7708 122.835 36.7636 123.876 35.0089C129.823 24.9775 124.304 8.51524 108.668 7.01023L107.133 6.69208C105.337 7.23611 86.105 6.82821 82.5279 6.82821C78.3978 6.82821 74.4502 6.35759 72.3838 9.02974C70.405 11.5888 71.0615 16.6502 71.0615 20.2463C71.0615 36.7577 71.0544 53.2693 71.0576 69.7807C71.0581 71.7599 71.4815 73.3017 72.3636 74.5847C74.8249 78.1646 83.2783 76.8566 88.7464 76.8566C93.7683 76.8566 109.495 77.0998 113.353 76.5768C126.952 74.7334 133.806 63.8148 131.814 52.0334C131.55 50.4722 130.484 48.0869 130.438 47.2265Z" fill="#FEFEFE"/>
<path fill-rule="evenodd" clip-rule="evenodd" d="M147.436 6.6343C146.192 8.40029 144.151 8.01686 144.162 14.2402L144.162 46.8371C144.154 54.2002 144.166 61.5635 144.159 68.9267C144.151 78.8705 152.764 77.7961 155.722 74.5692C157.781 72.3231 157.512 69.1785 157.512 65.4917C157.512 56.0585 157.096 40.8231 157.546 32.6754L171.896 52.6762C173.338 54.6574 175.352 57.526 179.225 56.927C182.257 56.4581 184.189 53.6351 185.575 51.8878C187.33 49.6769 188.936 47.6248 190.686 45.4196C191.2 44.772 200.141 33.2963 200.946 32.6594C201.333 43.3386 200.96 57.7629 200.967 69.1428C200.969 73.0643 202.348 75.7898 205.632 76.6263C209.549 77.6243 212.309 75.3186 213.164 72.4071C213.919 69.8362 213.528 40.1364 213.528 36.1143C213.528 32.2451 213.751 13.9849 213.447 11.7714C212.994 8.47781 210.384 6.05556 206.678 6.19192C202.702 6.33806 201.43 9.29955 199.683 11.5287C195.297 17.1283 188.487 26.5943 184.096 32.614C183.269 33.7487 182.401 34.868 181.533 36.0523C180.705 37.1828 179.799 38.747 178.778 39.5433L164.863 20.6823C162.467 17.4162 156.763 8.94977 153.85 7.02745C150.559 4.85479 148.591 6.54621 147.436 6.6343Z" fill="#FEFEFE"/>
<path fill-rule="evenodd" clip-rule="evenodd" d="M24.5101 19.5083C24.7755 21.2678 24.5813 63.6761 24.5812 67.6361C24.5811 70.5247 24.3126 72.4705 25.7892 74.6223C28.1002 77.9899 33.8854 78.2259 36.6296 74.7069C37.946 73.0188 37.9304 70.4301 37.93 67.8505C37.9296 63.9395 37.7135 21.1895 38.0195 19.4832C43.538 19.4532 49.1544 19.6039 54.6559 19.4805C57.2629 19.422 59.3607 18.3767 60.3778 16.7547C61.5143 14.9424 61.9174 12.165 60.8183 10.0019C58.5126 5.46401 53.1298 6.50724 47.3598 6.50724C36.1378 6.50724 24.9157 6.50724 13.6938 6.50724C7.95448 6.50724 2.64186 5.54203 0.722212 10.4921C-0.189618 12.8433 0.315612 15.1632 1.52323 16.9755C2.61262 18.6105 4.78734 19.4847 7.68944 19.4836C13.0596 19.4814 19.2389 19.1979 24.5101 19.5083Z" fill="#FEFEFE"/>
<path fill-rule="evenodd" clip-rule="evenodd" d="M272.436 44.2406C266.056 45.2746 262.447 50.5367 262.282 56.2695C262.105 62.4566 266.763 68.4502 273.117 67.5932C278.471 66.871 282.729 61.4651 282.981 55.421C283.243 49.141 278.861 43.1994 272.436 44.2406Z" fill="#FEFEFE"/>
<path fill-rule="evenodd" clip-rule="evenodd" d="M257.62 24.0874C252.108 25.4439 248.937 31.2791 251.518 37.8091C253.259 42.2152 258.39 46.6854 265.009 44.9303C269.883 43.6379 273.738 37.6192 271.211 31.4168C269.503 27.2252 264.247 22.4567 257.62 24.0874Z" fill="#FEFEFE"/>
<path fill-rule="evenodd" clip-rule="evenodd" d="M260.152 7.98509C250.321 10.437 263.075 27.6999 273.03 24.1936C278.221 22.3652 277.225 16.6142 273.26 12.8506C271.707 11.3766 270.169 10.1601 267.729 9.16503C265.613 8.30258 262.641 7.36421 260.152 7.98509Z" fill="#FEFEFE"/>
<path fill-rule="evenodd" clip-rule="evenodd" d="M291.482 44.6646C282.428 46.964 282.212 68.789 290.612 67.2724C294.458 66.578 296.824 60.7598 297.26 56.1244C297.665 51.8108 296.373 43.4228 291.482 44.6646Z" fill="#FEFEFE"/>
<path fill-rule="evenodd" clip-rule="evenodd" d="M275.133 7.57266C272.982 8.6328 274.745 12.2733 275.579 13.7524C276.735 15.8014 277.906 17.0811 279.216 18.6893C286.632 27.7971 296.911 26.9143 286.015 13.1745C285.677 12.7487 284.36 11.4824 283.954 11.1658C283.104 10.502 282.424 9.92266 281.5 9.32686C280.131 8.44406 277.231 6.53866 275.133 7.57266Z" fill="#FEFEFE"/>
<path fill-rule="evenodd" clip-rule="evenodd" d="M260.038 68.3944C251.423 70.2947 252.222 82.494 261.518 80.6434C264.428 80.0642 267.511 77.0947 267.463 73.6378C267.413 69.9851 263.934 67.5351 260.038 68.3944Z" fill="#FEFEFE"/>
<path fill-rule="evenodd" clip-rule="evenodd" d="M292.03 24.7388C287.961 27.9396 295.253 49.1849 299.293 46.8255C301.721 45.4072 299.514 36.0317 298.781 33.6523C298.013 31.1608 294.478 22.8133 292.03 24.7388Z" fill="#FEFEFE"/>
<path fill-rule="evenodd" clip-rule="evenodd" d="M238.972 27.5272C231.844 29.8114 235.464 42.3537 243.617 39.5968C246.57 38.5983 248.507 35.2063 246.896 31.4978C245.835 29.0565 242.688 26.3367 238.972 27.5272Z" fill="#FEFEFE"/>
<path fill-rule="evenodd" clip-rule="evenodd" d="M243.198 2.71066C242.797 6.05485 253.318 9.8566 255.107 7.33365C257.516 3.93557 246.416 0.284136 243.198 2.71066Z" fill="#FEFEFE"/>
<path fill-rule="evenodd" clip-rule="evenodd" d="M289.415 79.8668C292.604 80.2483 295.724 72.721 295.264 68.1863C290.954 68.3661 288.104 77.4074 289.415 79.8668Z" fill="#FEFEFE"/>
<path fill-rule="evenodd" clip-rule="evenodd" d="M250.395 84.0548C246.592 85.1271 247.693 90.0567 252.493 88.795C253.776 88.4574 255.232 87.093 254.439 85.5104C253.838 84.3106 251.994 83.604 250.395 84.0548Z" fill="#FEFEFE"/>
<path fill-rule="evenodd" clip-rule="evenodd" d="M226.878 28.5604C223.715 29.869 225.206 35.3846 228.609 34.2449C231.652 33.226 230.18 27.1949 226.878 28.5604Z" fill="#FEFEFE"/>
<path fill-rule="evenodd" clip-rule="evenodd" d="M280.363 7.01337C279.808 5.2719 277.283 3.58776 275.543 2.63394C274.05 1.81537 270.823 -0.149651 268.91 0.0648351C269.196 0.979057 270.363 1.6297 271.234 2.22917C273.573 3.83956 277.555 6.58357 280.363 7.01337Z" fill="#FEFEFE"/>
<path fill-rule="evenodd" clip-rule="evenodd" d="M232.72 0.463259C233.33 0.875882 234.185 1.113 235.109 1.27928C236.143 1.46546 237.34 1.59181 237.967 0.947291C236.864 0.152407 234.02 -0.460082 232.72 0.463259Z" fill="#FEFEFE"/>
</svg>
