<svg width="314" height="129" viewBox="0 0 314 129" fill="none" xmlns="http://www.w3.org/2000/svg">
<path fill-rule="evenodd" clip-rule="evenodd" d="M19.7449 61.7352L49.1555 88.613L127.454 12.2606L127.618 0L49.775 75.88L26.7415 54.7386L19.7449 61.7352Z" fill="url(#paint0_linear_9150_93)"/>
<path fill-rule="evenodd" clip-rule="evenodd" d="M8.97209 121.877L8.9485 43.0454L41.3085 10.5249L86.074 10.5302L85.9306 28.9992C88.9686 26.1053 92.6037 22.3406 94.3379 20.6189C94.3851 15.5892 94.5817 10.9452 94.592 5.92423C94.5958 3.99487 92.188 1.17478 89.7 1.1756L38.5215 1.74528C38.3629 1.7571 38.2223 1.79092 38.1032 1.91529L0.425964 39.9557C0.150612 40.212 0.0464013 40.5155 0.0703642 40.8529L0 120.611C0.114883 126.538 2.92391 129.052 8.95344 128.999L87.7448 128.991C92.5584 128.994 94.5536 126.961 94.5676 122.301L95.1864 58.8556C91.7715 62.7728 89.1793 65.5632 86.147 68.9202C86.0691 71.3181 85.9911 74.2234 85.9276 76.8662L85.8124 121.877H8.97209Z" fill="url(#paint1_linear_9150_93)"/>
<path d="M118.539 41.5739H126.986V64.2324C126.986 67.828 127.091 70.1586 127.3 71.224C127.662 72.9362 128.518 74.3155 129.868 75.3618C131.238 76.3892 133.103 76.9028 135.462 76.9028C137.859 76.9028 139.666 76.4177 140.884 75.4475C142.101 74.4582 142.834 73.2501 143.081 71.8232C143.328 70.3964 143.452 68.0278 143.452 64.7175V41.5739H151.899V63.5475C151.899 68.57 151.671 72.1181 151.214 74.1918C150.758 76.2655 149.911 78.0158 148.674 79.4426C147.457 80.8695 145.821 82.011 143.766 82.8671C141.711 83.7042 139.029 84.1227 135.719 84.1227C131.723 84.1227 128.689 83.6661 126.615 82.7529C124.561 81.8207 122.934 80.6222 121.735 79.1573C120.537 77.6733 119.747 76.1228 119.367 74.5057C118.815 72.1086 118.539 68.57 118.539 63.8899V41.5739ZM157.207 83.4093V75.7899L179.181 48.6511H159.69V41.5739H190.31V48.1375L167.395 76.3606H191.195V83.4093H157.207ZM196.303 83.4093V41.5739H204.75V83.4093H196.303ZM212.712 83.4093V41.5739H225.354L232.944 70.111L240.45 41.5739H253.12V83.4093H245.272V50.4775L236.968 83.4093H228.835L220.559 50.4775V83.4093H212.712ZM261.51 83.4093V41.5739H292.53V48.6511H269.957V57.9257H290.96V64.9743H269.957V76.3606H293.329V83.4093H261.51ZM300.235 83.4093V41.5739H308.682V83.4093H300.235Z" fill="#EBECEC"/>
<defs>
<linearGradient id="paint0_linear_9150_93" x1="48.1534" y1="83.7974" x2="126.678" y2="5.27232" gradientUnits="userSpaceOnUse">
<stop stop-color="#149640"/>
<stop offset="1" stop-color="#5CD12A"/>
</linearGradient>
<linearGradient id="paint1_linear_9150_93" x1="0.047927" y1="129.04" x2="80.5012" y2="29.7446" gradientUnits="userSpaceOnUse">
<stop stop-color="#2B3182"/>
<stop offset="0.619608" stop-color="#19519D"/>
<stop offset="1" stop-color="#0672B8"/>
</linearGradient>
</defs>
</svg>
